# xmcd CD database file
#
# Track frame offsets:
#	150
#	15662
#	35357
#	52520
#	73099
#	104327
#	114798
#	129140
#	143807
#	163206
#	177477
#
# Disc length: 2634 seconds
#
# Revision: 1
# Processed by: cddbd v1.4PL0 Copyright (c) Steve Scherf et al.
# Submitted via: jetAudio 5
#
DISCID=880a480b
DTITLE=Abe Reid - Blue Rags
DYEAR=1900
DGENRE=
TTITLE0=Molly's Lips
TTITLE1=Brown Skin Woman
TTITLE2=Take Me Back
TTITLE3=Hot Tamales
TTITLE4=Sweet Georgia Brown
TTITLE5=Hot Tamales
TTITLE6=Drink Corn Liquor
TTITLE7=I Got Rhythm
TTITLE8=Make Me A Pallet
TTITLE9=Candyman
TTITLE10=Salt Dog
EXTD=
EXTT0=
EXTT1=
EXTT2=
EXTT3=
EXTT4=
EXTT5=
EXTT6=
EXTT7=
EXTT8=
EXTT9=
EXTT10=
PLAYORDER=
